<svg xmlns="http://www.w3.org/2000/svg" width="737.631" height="586.141" viewBox="0 0 737.631 586.141">
  <g id="undraw_share_opinion_re_4qk7" transform="translate(-40.369 0)">
    <path id="Path_55" data-name="Path 55" d="M773.372,225.4h-3.221V137.174a51.063,51.063,0,0,0-51.063-51.063H532.17a51.063,51.063,0,0,0-51.063,51.063V621.189a51.063,51.063,0,0,0,51.063,51.063H719.089a51.063,51.063,0,0,0,51.063-51.063V288.2h3.221Z" transform="translate(-187.861 -86.111)" fill="#3f3d56"/>
    <path id="Path_56" data-name="Path 56" d="M724.554,102.606h-24.4a18.117,18.117,0,0,1-16.774,24.959H576.3a18.117,18.117,0,0,1-16.774-24.959H536.735A38.133,38.133,0,0,0,498.6,140.739V624.044a38.133,38.133,0,0,0,38.133,38.133H724.554a38.133,38.133,0,0,0,38.133-38.133h0v-483.3a38.133,38.133,0,0,0-38.133-38.133Z" transform="translate(-191.266 -89.321)" fill="#fff"/>
    <ellipse id="Ellipse_10" data-name="Ellipse 10" cx="33.826" cy="3.222" rx="33.826" ry="3.222" transform="translate(444.458 216.413)" fill="#e6e6e6"/>
    <path id="Path_57" data-name="Path 57" d="M890.75,99.868h-311.4V202.1h11.8v26.737L617.878,202.1H890.75Z" transform="translate(-112.75 -19.436)" fill="#00bfa6"/>
    <rect id="Rectangle_10" data-name="Rectangle 10" width="141.604" height="4.297" transform="translate(501.256 115.051)" fill="#fff"/>
    <rect id="Rectangle_11" data-name="Rectangle 11" width="246.803" height="4.297" transform="translate(501.256 129.917)" fill="#fff"/>
    <rect id="Rectangle_12" data-name="Rectangle 12" width="246.561" height="4.297" transform="translate(501.256 144.782)" fill="#fff"/>
    <path id="Path_58" data-name="Path 58" d="M807.153,482.708H558.58v81.6H568v21.342l21.342-21.342H807.153Z" transform="translate(-108.708 -93.942)" fill="#00bfa6"/>
    <rect id="Rectangle_13" data-name="Rectangle 13" width="113.033" height="3.43" transform="translate(477.538 416.399)" fill="#fff"/>
    <rect id="Rectangle_14" data-name="Rectangle 14" width="197.007" height="3.43" transform="translate(477.538 428.266)" fill="#fff"/>
    <rect id="Rectangle_15" data-name="Rectangle 15" width="196.813" height="3.43" transform="translate(477.538 440.132)" fill="#fff"/>
    <ellipse id="Ellipse_11" data-name="Ellipse 11" cx="27.001" cy="2.572" rx="27.001" ry="2.572" transform="translate(432.199 497.311)" fill="#e6e6e6"/>
    <ellipse id="Ellipse_12" data-name="Ellipse 12" cx="33.826" cy="3.222" rx="33.826" ry="3.222" transform="translate(351.033 335.61)" fill="#e6e6e6"/>
    <path id="Path_59" data-name="Path 59" d="M220.435,298.894h218.99v71.891h-8.3v18.8l-18.8-18.8H220.435Z" transform="translate(-42.9 -58.169)" fill="#00bfa6"/>
    <rect id="Rectangle_16" data-name="Rectangle 16" width="99.58" height="3.022" transform="translate(200.249 264.517)" fill="#fff"/>
    <rect id="Rectangle_17" data-name="Rectangle 17" width="173.56" height="3.022" transform="translate(200.249 274.971)" fill="#fff"/>
    <rect id="Rectangle_18" data-name="Rectangle 18" width="173.39" height="3.022" transform="translate(200.249 285.425)" fill="#fff"/>
    <path id="Path_60" data-name="Path 60" d="M204.727,586.141a7.884,7.884,0,1,0,13.635-7.918,8.487,8.487,0,0,0-.742-1.053l6.632-47.268.2-1.416,1.347-9.645.2-1.39-.734.034-12.849.587-3.446.155-.432,8.8L206.092,576.5a7.873,7.873,0,0,0-1.364,9.645Z" transform="translate(-133.866 -170.056)" fill="#a0616a"/>
    <path id="Path_61" data-name="Path 61" d="M224.779,519.56l-16.315-1.5a3.221,3.221,0,0,1-2.9-3.486l3.026-33.928a12.37,12.37,0,1,1,24.56,2.9l-4.892,33.279a3.215,3.215,0,0,1-3.176,2.746C224.977,519.574,224.878,519.57,224.779,519.56Z" transform="translate(-134.233 -160.7)" fill="#ccc"/>
    <path id="Path_62" data-name="Path 62" d="M213.759,490.565a22.724,22.724,0,0,1,8.357-26.153c6.152-4.21,14.571-5.721,23.638,5.073a112.879,112.879,0,0,1,22.883,45.334l-37.13,6.044S218.879,505.428,213.759,490.565Z" transform="translate(-135.579 -159.117)" fill="#ccc"/>
    <path id="Path_63" data-name="Path 63" d="M171.635,703.6h10.586l5.036-40.833H171.633Z" transform="translate(-33.402 -128.984)" fill="#a0616a"/>
    <path id="Path_64" data-name="Path 64" d="M0,0H33.271V12.855h-23A10.266,10.266,0,0,1,0,2.588V0Z" transform="translate(169.233 584.443) rotate(179.997)" fill="#2f2e41"/>
    <path id="Path_65" data-name="Path 65" d="M63.569,692.633l10.051,3.322,17.6-37.189-14.834-4.9Z" transform="translate(-12.371 -127.252)" fill="#a0616a"/>
    <path id="Path_66" data-name="Path 66" d="M0,0H33.271V12.855h-23A10.266,10.266,0,0,1,0,2.588V0Z" transform="translate(77.549 584.443) rotate(-161.71)" fill="#2f2e41"/>
    <circle id="Ellipse_13" data-name="Ellipse 13" cx="21.208" cy="21.208" r="21.208" transform="translate(72.704 264.943) rotate(-28.663)" fill="#a0616a"/>
    <path id="Path_67" data-name="Path 67" d="M246.812,734.713l-9.831-64.887a3.022,3.022,0,0,0-5.925-.259L216.084,731.4a3.914,3.914,0,0,1-4.393,2.923l-41.3-6.637a3.886,3.886,0,0,1-3.1-4.965l53.848-177.53a3.024,3.024,0,0,0,.053-1.556L219.4,535.87a3.871,3.871,0,0,1,2.009-4.329c7.333-3.742,25.9-11.52,39.92-3a3.93,3.93,0,0,1,1.8,2.527l42.065,197.71a3.886,3.886,0,0,1-3.454,4.679L251,738q-.175.015-.348.015A3.893,3.893,0,0,1,246.812,734.713Z" transform="translate(-126.756 -171.467)" fill="#2f2e41"/>
    <path id="Path_68" data-name="Path 68" d="M222.6,404.161a16.044,16.044,0,0,0,4.193-3.644,5.442,5.442,0,0,0,.837-5.265c-1.071-2.364-4.256-3.113-6.723-2.307s-4.373,2.739-6.176,4.605a15.951,15.951,0,0,0-3.975,5.519c-.753,2.158-.366,4.895,1.508,6.2,1.839,1.285,4.483.759,6.252-.621a15.949,15.949,0,0,0,3.908-5.414Z" transform="translate(-135.177 -145.765)" fill="#2f2e41"/>
    <path id="Path_69" data-name="Path 69" d="M208.3,397.182c-.118-5.976-6.929-10.261-12.811-9.2s-10.4,6.074-12.667,11.606c-4.782,11.688-1.192,25.023,3.416,36.781s10.31,23.693,9.638,36.3a37.929,37.929,0,0,1-22.032,31.953c6.639,3.009,14.574-.1,20.153-4.791,12.389-10.418,17.172-28.966,11.364-44.076-2.864-7.453-7.912-13.828-11.853-20.772s-6.832-15.127-4.8-22.847,10.694-13.974,18.1-10.983Z" transform="translate(-128.064 -144.828)" fill="#2f2e41"/>
    <path id="Path_70" data-name="Path 70" d="M238.455,429.2c-1.849-3.124-3.715-7.226-.335-9.957a6.963,6.963,0,0,1,5.225-1.382c3.81.459,7.959.649,11.646-.736a10.918,10.918,0,0,0,6.333-5.691c1.9-4.511-.48-9.992-4.46-12.844a15.023,15.023,0,0,0-16.629-.294c-5.155-2.277-11.409-1.264-16.093,1.87s-7.888,8.154-9.629,13.513a26.083,26.083,0,0,0-.8,14.347A21.321,21.321,0,0,0,226.943,442.6a7.678,7.678,0,0,0,7.583-1.125,14.265,14.265,0,0,0,3.838-5.625C239.068,433.49,239.444,430.868,238.455,429.2Z" transform="translate(-135.697 -146.406)" fill="#2f2e41"/>
    <path id="Path_71" data-name="Path 71" d="M309.194,459.044a9.088,9.088,0,0,0-.207,1.416l-37.093,21.4-9.016-5.19-9.612,12.583,15.068,10.74a6.908,6.908,0,0,0,8.288-.2l38.25-30.175a9.064,9.064,0,1,0-5.678-10.57Z" transform="translate(-143.52 -157.328)" fill="#a0616a"/>
    <path id="Path_72" data-name="Path 72" d="M266.251,486.08l-11.988,15.537a3.886,3.886,0,0,1-5.875.322l-13.572-14.093A10.791,10.791,0,1,1,248.051,470.8l17.022,9.518a3.886,3.886,0,0,1,1.179,5.765Z" transform="translate(-139.117 -160.536)" fill="#ccc"/>
  </g>
</svg>
